# xmcd CD database file
#
# Track frame offsets:
#	150
#	23331
#	43616
#	68656
#	90032
#	120993
#	137685
#	155945
#	182382
#	205812
#	229703
#	259704
#	281622
#
# Disc length: 4164 seconds
#
# Revision: 0
# Processed by: cddbd v1.5.1PL0 Copyright (c) Steve Scherf et al.
# Submitted via: CDex 1.51
#
DISCID=9d10420d
DTITLE=Native - Snobbism
DYEAR=2004
DGENRE=Jazz
TTITLE0=zoo
TTITLE1=Drum'n GO GO
TTITLE2=EMISHI -i feel like you're far away from me-
TTITLE3=Snobisme
TTITLE4=MOVE'67
TTITLE5=boilermaker
TTITLE6=ever after
TTITLE7=blanco
TTITLE8=Who are you?
TTITLE9=Asyl
TTITLE10=Fire Works
TTITLE11=Reunion
TTITLE12=Circle of Life
EXTD=YEAR: 2004
EXTT0=
EXTT1=
EXTT2=
EXTT3=
EXTT4=
EXTT5=
EXTT6=
EXTT7=
EXTT8=
EXTT9=
EXTT10=
EXTT11=
EXTT12=
PLAYORDER=
